 <svg xmlns="http://www.w3.org/2000/svg" viewBox="0 0 375 620" font-family="-apple-system,BlinkMacSystemFont,'Segoe UI',Roboto,'Noto Sans SC',sans-serif">
 <defs>
   <filter id="s" x="-4%" y="-4%" width="108%" height="108%">
     <feDropShadow dx="0" dy="1" stdDeviation="3" flood-color="#000" flood-opacity="0.06"/>
   </filter>
 </defs>
 
 <rect width="375" height="620" fill="#f4f5f7" rx="20"/>
 
 <!-- Status bar -->
 <text x="20" y="24" font-size="12" fill="#1a1d23" font-weight="600">9:41</text>
 
 <!-- Header -->
 <text x="20" y="62" font-size="22" font-weight="700" fill="#1a1d23" letter-spacing="-0.3">Todo</text>
 <text x="72" y="62" font-size="22" font-weight="700" fill="#4f6ef7" letter-spacing="-0.3">List</text>
 
 <rect x="280" y="43" width="80" height="26" rx="13" fill="#fff" filter="url(#s)"/>
 <text x="320" y="61" font-size="13" fill="#6b7280" text-anchor="middle">2 / 5</text>
 
 <!-- Add form (wrapped on mobile) -->
 <rect x="20" y="84" width="335" height="42" rx="10" fill="#fff" stroke="#e2e4e8" stroke-width="2"/>
 <text x="34" y="109" font-size="15" fill="#9ca3af">Add a new task…</text>
 
 <rect x="20" y="134" width="150" height="38" rx="10" fill="#fff" stroke="#e2e4e8" stroke-width="2"/>
 <text x="36" y="158" font-size="13" fill="#6b7280">Medium</text>
 <polygon points="150,153 156,159 162,153" fill="#6b7280"/>
 
 <rect x="180" y="134" width="175" height="38" rx="10" fill="url(#g1)"/>
 <text x="267" y="158" font-size="15" fill="#fff" text-anchor="middle" font-weight="600">Add</text>
 
 <!-- Toolbar -->
 <rect x="20" y="190" width="42" height="30" rx="15" fill="#4f6ef7"/>
 <text x="33" y="210" font-size="12" font-weight="600" fill="#fff">All</text><text x="52" y="210" font-size="11" fill="rgba(255,255,255,0.7)">5</text>
 
 <rect x="66" y="190" width="56" height="30" rx="15" fill="#fff" stroke="#e2e4e8" stroke-width="1"/>
 <text x="79" y="210" font-size="12" fill="#6b7280">Active</text><text x="113" y="210" font-size="11" fill="#9ca3af">3</text>
 
 <rect x="126" y="190" width="52" height="30" rx="15" fill="#fff" stroke="#e2e4e8" stroke-width="1"/>
 <text x="139" y="210" font-size="12" fill="#6b7280">Done</text><text x="168" y="210" font-size="11" fill="#9ca3af">2</text>
 
 <!-- Item 1 -->
 <g filter="url(#s)">
   <rect x="20" y="238" width="335" height="52" rx="10" fill="#fff"/>
   <circle cx="44" cy="264" r="10" fill="#fff" stroke="#e2e4e8" stroke-width="2"/>
   <circle cx="68" cy="264" r="4" fill="#ef4444"/>
   <text x="82" y="269" font-size="14" fill="#1a1d23">设计并实现用户登录页面</text>
   <rect x="320" y="252" width="22" height="22" rx="6"/><text x="331" y="268" font-size="13" fill="#6b7280" text-anchor="middle">✎</text>
   <rect x="342" y="252" width="22" height="22" rx="6"/><text x="353" y="268" font-size="13" fill="#6b7280" text-anchor="middle">✕</text>
 </g>
 
 <!-- Item 2 -->
 <g filter="url(#s)">
   <rect x="20" y="296" width="335" height="52" rx="10" fill="#fff"/>
   <circle cx="44" cy="322" r="10" fill="#fff" stroke="#e2e4e8" stroke-width="2"/>
   <circle cx="68" cy="322" r="4" fill="#f59e0b"/>
   <text x="82" y="327" font-size="14" fill="#1a1d23">编写 API 接口文档</text>
   <rect x="320" y="310" width="22" height="22" rx="6"/><text x="331" y="326" font-size="13" fill="#6b7280" text-anchor="middle">✎</text>
   <rect x="342" y="310" width="22" height="22" rx="6"/><text x="353" y="326" font-size="13" fill="#6b7280" text-anchor="middle">✕</text>
 </g>
 
 <!-- Mobile bottom edge indicator -->
 <rect x="150" y="600" width="75" height="4" rx="2" fill="#d1d5db"/>
 </svg>
